<svg width="187" height="350" viewBox="0 0 187 350" fill="none" xmlns="http://www.w3.org/2000/svg">
<mask id="path-1-outside-1_1_22" maskUnits="userSpaceOnUse" x="-2" y="-1" width="190" height="352" fill="black">
<rect fill="white" x="-2" y="-1" width="190" height="352"/>
<path d="M123 350V47H114L67 158H5.21541e-08L71.5 -2.38419e-05H187V350H123Z"/>
</mask>
<path d="M123 350H122V351H123V350ZM123 47H124V46H123V47ZM114 47V46H113.337L113.079 46.6101L114 47ZM67 158V159H67.6625L67.9209 158.39L67 158ZM0 158L-0.911057 157.588L-1.55016 159H0V158ZM71.5 -3.05176e-05V-1.00003H70.8549L70.5889 -0.412308L71.5 -3.05176e-05ZM187 -3.05176e-05H188V-1.00003H187V-3.05176e-05ZM187 350V351H188V350H187ZM124 350V47H122V350H124ZM123 46H114V48H123V46ZM113.079 46.6101L66.0792 157.61L67.9209 158.39L114.921 47.3899L113.079 46.6101ZM67 157H0V159H67V157ZM0.911057 158.412L72.4111 0.412262L70.5889 -0.412308L-0.911057 157.588L0.911057 158.412ZM71.5 0.999969H187V-1.00003H71.5V0.999969ZM186 -3.05176e-05V350H188V-3.05176e-05H186ZM187 349H123V351H187V349Z" fill="white" mask="url(#path-1-outside-1_1_22)"/>
</svg>
