<svg width="257" height="357" viewBox="0 0 257 357" fill="none" xmlns="http://www.w3.org/2000/svg">
<mask id="path-1-outside-1_1_24" maskUnits="userSpaceOnUse" x="-1" y="-1" width="259" height="359" fill="black">
<rect fill="white" x="-1" y="-1" width="259" height="359"/>
<path d="M1.57952e-06 357V315C1.57952e-06 290.667 4 270.5 12 254.5C20 238.167 31.5 224.833 46.5 214.5C61.8333 203.833 80.5 195.167 102.5 188.5L136 178C148.333 174 158.667 169.167 167 163.5C175.333 157.5 181.667 150.333 186 142C190.667 133.667 193 124.167 193 113.5V111.5C193 94.8333 187.333 81.6667 176 72C164.667 62 149.167 57 129.5 57C110.167 57 94.5 62.3333 82.5 73C70.8333 83.3333 65 98.3333 65 118V127H1V119C1 93.6666 6.66667 72.1666 18 54.5C29.3333 36.8333 44.6667 23.3333 64 14C83.6667 4.66664 105.5 -2.31266e-05 129.5 -2.31266e-05C153.5 -2.31266e-05 175.167 4.66664 194.5 14C213.833 23 229 35.8333 240 52.5C251.333 68.8333 257 88.1667 257 110.5V115.5C257 137.833 252.333 156.833 243 172.5C234 187.833 221.667 200.5 206 210.5C190.333 220.167 172.5 228.167 152.5 234.5L120.5 244.5C106.167 248.833 95 253.667 87 259C79 264 73.3333 269.667 70 276C67 282 65.5 289.333 65.5 298V300H254V357H1.57952e-06Z"/>
</mask>
<path d="M1.90735e-06 357H-0.999998V358H1.90735e-06V357ZM12 254.5L12.8945 254.947L12.8981 254.94L12 254.5ZM46.5 214.5L47.0673 215.324L47.0711 215.321L46.5 214.5ZM102.5 188.5L102.79 189.457L102.799 189.454L102.5 188.5ZM136 178L136.299 178.954L136.309 178.951L136 178ZM167 163.5L167.562 164.327L167.573 164.319L167.584 164.312L167 163.5ZM186 142L185.128 141.511L185.12 141.525L185.113 141.539L186 142ZM176 72L175.338 72.7498L175.345 72.7554L175.351 72.7608L176 72ZM82.5 73L83.163 73.7486L83.1644 73.7474L82.5 73ZM65 127V128H66V127H65ZM1 127H1.90735e-06V128H1V127ZM18 54.5L18.8417 55.0399L18 54.5ZM64 14L63.5712 13.0965L63.5653 13.0994L64 14ZM194.5 14L194.065 14.9006L194.078 14.9066L194.5 14ZM240 52.5L239.165 53.0508L239.172 53.0605L239.178 53.0701L240 52.5ZM243 172.5L242.141 171.988L242.138 171.994L243 172.5ZM206 210.5L206.525 211.351L206.532 211.347L206.538 211.343L206 210.5ZM152.5 234.5L152.798 235.454L152.802 235.453L152.5 234.5ZM120.5 244.5L120.789 245.457L120.798 245.454L120.5 244.5ZM87 259L87.53 259.848L87.5425 259.84L87.5547 259.832L87 259ZM70 276L69.1151 275.534L69.1102 275.543L69.1056 275.553L70 276ZM65.5 300H64.5V301H65.5V300ZM254 300H255V299H254V300ZM254 357V358H255V357H254ZM1 357V315H-0.999998V357H1ZM1 315C1 290.769 4.98424 270.768 12.8944 254.947L11.1056 254.053C3.01577 270.232 -0.999998 290.565 -0.999998 315H1ZM12.8981 254.94C20.8224 238.761 32.2084 225.56 47.0673 215.323L45.9327 213.676C30.7916 224.107 19.1776 237.572 11.1019 254.06L12.8981 254.94ZM47.0711 215.321C62.3012 204.726 80.868 196.1 102.79 189.457L102.21 187.543C80.132 194.233 61.3654 202.941 45.9289 213.679L47.0711 215.321ZM102.799 189.454L136.299 178.954L135.701 177.046L102.201 187.546L102.799 189.454ZM136.309 178.951C148.708 174.93 159.132 170.06 167.562 164.327L166.438 162.673C158.201 168.274 147.959 173.07 135.691 177.049L136.309 178.951ZM167.584 164.312C176.033 158.229 182.475 150.946 186.887 142.461L185.113 141.539C180.858 149.721 174.634 156.771 166.416 162.688L167.584 164.312ZM186.873 142.489C191.632 133.989 194 124.317 194 113.5H192C192 124.016 189.701 133.344 185.128 141.511L186.873 142.489ZM194 113.5V111.5H192V113.5H194ZM194 111.5C194 94.5796 188.233 81.1198 176.649 71.2391L175.351 72.7608C186.434 82.2135 192 95.087 192 111.5H194ZM176.662 71.2501C165.096 61.0454 149.335 56 129.5 56V58C148.998 58 164.237 62.9546 175.338 72.7498L176.662 71.2501ZM129.5 56C109.974 56 94.0545 61.3914 81.8356 72.2526L83.1644 73.7474C94.9455 63.2753 110.359 58 129.5 58V56ZM81.837 72.2514C69.9023 82.8221 64 98.1276 64 118H66C66 98.5391 71.7643 83.8446 83.163 73.7486L81.837 72.2514ZM64 118V127H66V118H64ZM65 126H1V128H65V126ZM2 127V119H1.90735e-06V127H2ZM2 119C2 93.8181 7.63138 72.5148 18.8417 55.0399L17.1583 53.96C5.70196 71.8185 1.90735e-06 93.5152 1.90735e-06 119H2ZM18.8417 55.0399C30.0729 37.5324 45.2638 24.1555 64.4348 14.9005L63.5653 13.0994C44.0696 22.5111 28.5938 36.1342 17.1583 53.96L18.8417 55.0399ZM64.4287 14.9034C83.9482 5.63994 105.633 0.999969 129.5 0.999969V-1.00003C105.367 -1.00003 83.3851 3.69336 63.5713 13.0965L64.4287 14.9034ZM129.5 0.999969C153.367 0.999969 174.883 5.64001 194.065 14.9005L194.935 13.0994C175.451 3.69328 153.633 -1.00003 129.5 -1.00003V0.999969ZM194.078 14.9066C213.255 23.834 228.274 36.5492 239.165 53.0508L240.835 51.9491C229.726 35.1174 214.411 22.166 194.922 13.0934L194.078 14.9066ZM239.178 53.0701C250.382 69.2157 256 88.3443 256 110.5H258C258 87.989 252.285 68.4509 240.822 51.9299L239.178 53.0701ZM256 110.5V115.5H258V110.5H256ZM256 115.5C256 137.694 251.363 156.508 242.141 171.988L243.859 173.012C253.303 157.159 258 137.973 258 115.5H256ZM242.138 171.994C233.221 187.185 221.002 199.738 205.462 209.657L206.538 211.343C222.332 201.262 234.779 188.482 243.862 173.006L242.138 171.994ZM205.475 209.649C189.887 219.267 172.13 227.235 152.198 233.547L152.802 235.453C172.87 229.099 190.78 221.066 206.525 211.351L205.475 209.649ZM152.202 233.546L120.202 243.546L120.798 245.454L152.798 235.454L152.202 233.546ZM120.211 243.543C105.829 247.891 94.5594 252.759 86.4453 258.168L87.5547 259.832C95.4406 254.575 106.504 249.776 120.789 245.457L120.211 243.543ZM86.47 258.152C78.3663 263.217 72.553 269.002 69.1151 275.534L70.8849 276.466C74.1136 270.331 79.6337 264.783 87.53 259.848L86.47 258.152ZM69.1056 275.553C66.0189 281.726 64.5 289.222 64.5 298H66.5C66.5 289.445 67.9811 282.274 70.8944 276.447L69.1056 275.553ZM64.5 298V300H66.5V298H64.5ZM65.5 301H254V299H65.5V301ZM253 300V357H255V300H253ZM254 356H1.90735e-06V358H254V356Z" fill="#0500FF" mask="url(#path-1-outside-1_1_24)"/>
</svg>
