<svg width="42" height="30" viewBox="0 0 42 30" fill="none" xmlns="http://www.w3.org/2000/svg">
<path d="M34.7696 2.18872L32.1881 8.92996C31.0293 11.9796 26.6291 11.7753 25.749 8.63813L24.1062 2.77238C23.6955 1.31323 22.3608 0.29183 20.8353 0.29183H20.3953C18.8699 0.29183 17.5351 1.31323 17.1244 2.77238L15.555 8.47763C14.6896 11.6294 10.26 11.8337 9.10124 8.76945L6.62241 2.18872C6.12371 0.875486 4.86229 0 3.43953 0H3.39553C1.01937 0 -0.6234 2.36382 0.227322 4.58171L9.11591 27.8259C9.61461 29.1391 10.876 30 12.2841 30H13.7215C15.2763 30 16.6257 28.9494 17.0071 27.4611L17.3591 26.0749C18.2245 22.7043 23.0355 22.6897 23.9302 26.0603L24.2969 27.4757C24.6929 28.964 26.0424 30 27.5825 30H29.0199C30.428 30 31.6894 29.1391 32.1881 27.8259L41.106 4.58171C41.9567 2.36382 40.314 0 37.9378 0C36.5297 0 35.2683 0.860897 34.7696 2.17413" fill="white"/>
</svg>
