<svg width="40" height="40" viewBox="0 0 40 40" fill="none" xmlns="http://www.w3.org/2000/svg">
<circle cx="20" cy="20" r="20" fill="#D9D9D9"/>
<path d="M28.1469 12.4639L26.6249 16.4294C25.9417 18.2233 23.3473 18.1031 22.8285 16.2577L21.8599 12.8073C21.6178 11.9489 20.8308 11.3481 19.9314 11.3481H19.672C18.7726 11.3481 17.9856 11.9489 17.7435 12.8073L16.8182 16.1633C16.308 18.0173 13.6963 18.1374 13.0131 16.335L11.5516 12.4639C11.2576 11.6914 10.5139 11.1765 9.67501 11.1765H9.64907C8.24811 11.1765 7.27954 12.5669 7.78112 13.8716L13.0217 27.5446C13.3158 28.3171 14.0595 28.8235 14.8897 28.8235H15.7372C16.6539 28.8235 17.4495 28.2055 17.6743 27.33L17.8819 26.5146C18.3921 24.5319 21.2286 24.5233 21.7561 26.506L21.9723 27.3386C22.2058 28.2141 23.0014 28.8235 23.9095 28.8235H24.7569C25.5871 28.8235 26.3309 28.3171 26.6249 27.5446L31.8828 13.8716C32.3844 12.5669 31.4158 11.1765 30.0149 11.1765C29.1847 11.1765 28.441 11.6829 28.1469 12.4554" fill="white"/>
</svg>
